<?xml version="1.0" standalone="no"?>
<!DOCTYPE svg PUBLIC "-//W3C//DTD SVG 20010904//EN"
 "http://www.w3.org/TR/2001/REC-SVG-20010904/DTD/svg10.dtd">
<svg version="1.0" xmlns="http://www.w3.org/2000/svg"
 width="500.000000pt" height="500.000000pt" viewBox="0 0 500.000000 500.000000"
 preserveAspectRatio="xMidYMid meet">
<metadata>
Created by potrace 1.16, written by Peter Selinger 2001-2019
</metadata>
<g transform="translate(0.000000,500.000000) scale(0.100000,-0.100000)"
fill="#000000" stroke="none">
<path d="M3972 3830 c-19 -4 -40 -17 -48 -28 -12 -17 -18 -19 -43 -9 -39 14
-85 -5 -101 -44 -10 -23 -19 -29 -43 -29 -45 0 -116 -38 -138 -74 -10 -17 -19
-46 -19 -63 0 -30 3 -33 29 -33 17 0 43 11 61 26 30 26 31 26 51 8 12 -11 40
-28 63 -39 39 -19 41 -23 47 -73 8 -58 21 -79 59 -94 22 -8 28 -5 53 23 15 18
27 39 27 46 0 15 16 17 25 3 3 -5 25 -10 49 -10 59 0 86 30 86 93 0 33 4 47
14 47 20 0 46 45 46 79 0 43 -39 84 -78 83 -26 0 -32 3 -32 19 0 21 -51 80
-67 78 -4 -1 -23 -5 -41 -9z"/>
<path d="M2895 1819 c-4 -6 -1 -10 6 -8 8 1 32 1 54 0 40 -1 41 -1 38 -38 -1
-21 -4 -96 -6 -168 -3 -119 -6 -135 -31 -184 -36 -70 -116 -148 -184 -179 -29
-13 -83 -28 -120 -33 -99 -13 -661 -11 -724 2 -98 21 -195 81 -243 153 -28 42
-55 100 -55 119 0 9 -4 18 -9 22 -22 13 -17 -15 13 -81 40 -86 110 -158 192
-198 56 -28 68 -30 239 -37 257 -11 509 -10 590 1 124 18 228 85 293 187 49
78 62 139 62 299 0 138 -1 142 -22 148 -36 9 -86 7 -93 -5z"/>
</g>
</svg>
