<?xml version="1.0" standalone="no"?>
<!DOCTYPE svg PUBLIC "-//W3C//DTD SVG 20010904//EN"
 "http://www.w3.org/TR/2001/REC-SVG-20010904/DTD/svg10.dtd">
<svg version="1.0" xmlns="http://www.w3.org/2000/svg"
 width="500.000000pt" height="500.000000pt" viewBox="0 0 500.000000 500.000000"
 preserveAspectRatio="xMidYMid meet">
<metadata>
Created by potrace 1.16, written by Peter Selinger 2001-2019
</metadata>
<g transform="translate(0.000000,500.000000) scale(0.100000,-0.100000)"
fill="#000000" stroke="none">
<path d="M4145 4390 c-4 -6 -24 -124 -46 -263 -21 -138 -41 -261 -44 -272 -3
-11 -21 -31 -40 -45 -60 -43 -129 -94 -143 -107 -20 -19 -29 -16 -37 15 -3 15
-13 41 -20 57 -42 93 -48 113 -46 161 3 60 -5 69 -78 80 -54 9 -54 9 -68 56
-7 27 -24 55 -39 67 -49 38 -130 20 -170 -37 -12 -18 -64 -144 -64 -157 0 -2
10 -5 23 -7 19 -3 22 -9 21 -43 -1 -24 -7 -41 -15 -43 -49 -15 -382 -412 -384
-458 0 -13 1 -21 4 -18 8 8 51 -39 51 -56 0 -9 -18 -29 -39 -46 -22 -16 -43
-38 -46 -49 -6 -18 -8 -16 -15 10 l-8 30 -1 -32 c0 -18 -5 -33 -9 -33 -4 0
-16 -14 -26 -31 -11 -19 -23 -28 -32 -25 -9 4 -12 1 -9 -5 4 -6 13 -8 21 -5
19 7 18 -3 -6 -42 -15 -23 -26 -32 -37 -28 -12 5 -13 4 -4 -7 9 -11 -1 -28
-49 -79 -33 -36 -75 -73 -94 -82 -47 -22 -101 -21 -126 4 -11 11 -23 20 -27
20 -4 0 -17 10 -28 23 -11 12 -28 29 -39 37 -18 14 -18 12 -13 -35 4 -28 9
-80 12 -116 6 -64 9 -70 91 -180 46 -63 99 -142 116 -176 32 -61 32 -62 20
-131 -12 -75 -69 -286 -83 -314 -9 -17 -136 -98 -154 -98 -9 0 0 374 11 426 5
26 -4 41 -75 129 -45 55 -81 104 -82 110 0 5 -14 -89 -29 -210 -32 -241 -82
-500 -125 -638 -22 -74 -31 -90 -53 -98 -27 -11 -131 -4 -143 9 -4 4 10 107
31 229 21 122 41 275 45 340 8 151 34 423 41 434 13 22 -5 6 -26 -23 -14 -19
-16 -27 -7 -19 15 11 17 11 17 -1 0 -8 -3 -18 -7 -21 -8 -8 -9 -19 -17 -167
-17 -296 -19 -322 -41 -445 -60 -338 -59 -327 -41 -340 14 -10 15 -20 6 -65
-5 -29 -10 -54 -10 -56 0 -2 -26 -4 -58 -4 -107 0 -123 -14 -342 -297 -193
-249 -195 -252 -233 -253 -24 0 -44 7 -56 19 -11 11 -38 25 -60 31 -46 12 -84
60 -48 60 7 0 21 6 30 13 18 13 16 28 -36 357 l-23 145 107 11 c58 7 116 17
127 23 41 22 37 73 -20 265 l-21 68 -58 -6 -59 -7 -16 41 c-18 45 -66 90 -95
90 -19 0 -20 5 -13 73 4 39 10 92 13 117 l6 45 42 -62 c69 -101 131 -134 202
-110 45 16 139 80 226 153 51 43 64 60 60 75 -4 13 -2 19 9 19 28 0 66 23 66
41 0 9 16 34 36 55 27 30 263 300 294 336 3 4 -3 -53 -14 -127 -11 -74 -16
-138 -13 -142 4 -4 15 1 25 12 16 17 16 18 -1 12 -12 -5 -16 -3 -11 4 4 6 8
32 10 58 7 111 13 143 26 135 7 -5 8 -2 3 7 -13 21 -6 71 13 94 29 36 -51 -47
-100 -104 -25 -29 -51 -50 -57 -47 -6 4 -9 1 -6 -6 3 -8 -31 -51 -77 -100 -46
-47 -80 -84 -75 -82 4 3 7 1 7 -4 0 -17 -55 -59 -80 -60 -26 -1 -51 -27 -45
-45 3 -7 -6 -19 -18 -28 -22 -16 -24 -15 -57 13 -21 18 -30 31 -23 34 7 3 10
11 7 19 -6 14 29 39 39 28 3 -3 9 7 13 23 7 26 8 26 16 9 6 -15 7 -12 3 10 -5
29 -5 29 11 10 15 -19 15 -19 9 8 -6 24 -3 29 26 41 32 13 36 13 59 -7 l25
-22 -24 27 c-13 15 -21 33 -18 40 14 33 99 128 109 122 7 -4 8 -3 4 4 -8 13
201 288 216 284 5 -1 7 1 4 6 -9 15 35 49 92 71 28 11 52 18 52 14 0 -4 7 2
15 13 13 17 15 12 16 -56 1 -41 4 -63 6 -48 2 15 12 29 21 31 15 4 14 5 -2 6
-16 1 -18 7 -12 64 3 34 9 81 12 103 4 26 2 44 -5 48 -18 12 -13 46 7 46 12 0
26 17 42 50 13 28 28 50 33 50 5 0 6 -7 3 -16 -4 -10 -2 -13 6 -8 6 4 21 -4
33 -20 19 -23 20 -32 11 -52 -6 -13 -18 -24 -26 -24 -12 0 -12 -2 -2 -8 9 -6
5 -17 -18 -40 -38 -40 -41 -77 -6 -77 13 0 22 3 20 6 -6 10 35 19 82 19 47 0
71 -18 51 -40 -10 -12 -9 -12 6 0 17 12 23 10 59 -28 22 -24 55 -61 73 -83
l34 -39 72 70 c51 50 78 70 91 67 10 -3 16 -1 12 4 -3 5 6 24 20 42 14 19 24
36 21 39 -11 11 19 58 36 58 10 0 19 11 23 26 4 15 9 24 12 21 3 -3 17 6 31
19 14 13 24 27 20 30 -19 19 -154 -132 -145 -163 4 -14 -34 -63 -43 -57 -5 3
-40 -26 -78 -64 l-68 -70 -86 87 c-97 99 -115 107 -200 87 -64 -15 -71 -7 -28
32 16 15 36 47 45 72 l15 44 -36 44 c-58 71 -119 82 -177 31 -39 -33 -74 -116
-122 -282 -27 -96 -31 -101 -148 -250 -66 -84 -135 -172 -154 -197 -19 -25
-62 -73 -95 -107 -93 -93 -127 -133 -127 -149 0 -8 -7 -14 -15 -14 -8 0 -48
-24 -88 -53 -39 -29 -77 -56 -83 -60 -7 -4 -24 11 -40 36 -71 105 -168 228
-187 239 -12 7 -52 12 -90 11 -37 0 -67 3 -67 7 0 5 12 22 26 39 14 17 28 46
31 65 3 20 12 41 19 47 22 18 17 26 -38 64 -39 26 -63 35 -93 35 -82 0 -108
-51 -85 -170 14 -75 8 -120 -16 -120 -9 0 -45 -14 -80 -30 -61 -30 -65 -34
-98 -103 -18 -40 -36 -80 -39 -90 -4 -9 -15 -17 -26 -17 -21 0 -61 -44 -61
-67 0 -11 8 -13 32 -8 27 6 30 5 24 -11 -4 -11 -12 -41 -18 -68 -15 -72 0 -95
85 -126 26 -9 27 -12 21 -52 -4 -24 -10 -50 -14 -58 -4 -8 -10 -32 -14 -52 -7
-37 -6 -38 18 -28 17 6 26 5 28 -3 3 -7 -3 -97 -13 -202 -49 -520 -54 -588
-41 -593 13 -4 16 -52 6 -89 -6 -21 -13 -23 -65 -23 l-59 0 0 -178 0 -179 197
-6 c306 -11 763 -8 806 4 56 15 87 48 285 304 l178 230 220 5 c197 5 222 7
254 25 19 12 158 152 309 313 l274 292 397 0 397 0 164 177 c90 97 180 194
200 216 l35 41 104 -97 c57 -54 106 -95 109 -91 8 7 48 705 41 708 -12 6 -700
-90 -700 -97 0 -5 38 -45 85 -89 47 -44 84 -85 83 -89 -7 -19 -292 -319 -303
-319 -7 0 -15 10 -19 23 -6 26 -39 44 -94 53 -47 8 -52 11 -52 35 0 13 7 19
23 19 12 0 27 4 34 8 15 9 90 322 110 457 9 65 16 213 19 425 5 320 6 331 40
439 3 8 21 -5 50 -38 75 -84 147 -80 230 12 l47 52 -7 -45 c-65 -403 -123
-817 -116 -824 22 -22 38 5 49 86 14 92 36 240 51 333 5 33 18 121 30 195 11
74 24 162 30 195 5 33 12 81 15 107 3 25 12 51 19 57 18 15 29 87 17 109 -5
11 -4 50 5 107 8 50 17 104 20 122 7 45 33 50 102 18 33 -16 83 -29 118 -32
53 -5 63 -3 86 18 22 21 28 40 43 137 10 62 15 115 12 118 -3 4 -20 1 -38 -5
-60 -21 -103 -14 -149 24 -23 19 -57 37 -78 40 -20 3 -47 8 -59 11 -12 2 -25
-1 -28 -6z m100 -20 c7 0 32 -15 54 -34 52 -43 84 -50 145 -32 l48 15 -5 -27
c-3 -15 -11 -64 -18 -110 -14 -95 -28 -112 -92 -119 -34 -4 -59 2 -117 27 -40
18 -83 30 -96 27 -21 -4 -23 0 -29 47 -6 50 10 185 23 198 10 9 45 16 60 12 8
-2 20 -4 27 -4z m-792 -274 c9 -24 67 -49 97 -42 34 6 45 -13 28 -49 -8 -19
-7 -33 6 -66 9 -23 16 -62 16 -88 -2 -46 6 -145 17 -211 l5 -35 13 35 c8 19
19 54 25 78 6 23 15 42 20 42 12 0 13 -87 1 -94 -4 -3 -6 -18 -3 -32 3 -17 1
-25 -6 -21 -10 7 -27 -22 -17 -31 3 -3 5 1 5 8 0 7 2 11 5 8 3 -3 -1 -20 -9
-39 l-15 -34 -1 35 c0 27 -3 31 -10 20 -6 -8 -8 -32 -4 -52 4 -28 2 -38 -8
-38 -10 0 -10 -2 -1 -8 35 -22 41 -500 9 -732 -18 -131 -93 -452 -109 -462 -6
-3 -43 -10 -82 -13 -82 -8 -129 5 -121 33 3 9 17 73 31 142 15 69 42 179 61
245 29 103 34 136 33 220 l0 100 -24 -65 c-13 -36 -64 -182 -113 -325 -49
-143 -99 -279 -111 -303 l-21 -42 -93 0 c-116 0 -121 3 -103 61 30 95 109 308
145 394 38 89 50 134 112 415 31 138 34 147 77 197 34 39 54 53 81 58 20 3 71
21 114 39 l79 33 -87 -5 -87 -5 31 54 c35 63 65 169 59 210 -3 16 -1 29 3 29
13 0 14 43 3 100 -10 54 -11 55 -42 52 -22 -2 -36 3 -49 17 -9 12 -24 21 -31
21 -17 0 -11 29 23 105 24 55 38 67 48 41z m257 -203 c32 -18 70 -80 70 -112
0 -13 4 -19 11 -16 6 4 9 1 8 -6 -1 -8 6 -33 16 -57 22 -54 40 -52 110 13 54
49 63 53 71 30 4 -8 9 -13 13 -11 4 3 12 -3 18 -13 9 -14 5 -27 -17 -62 -56
-88 -93 -121 -144 -129 -55 -8 -70 0 -121 70 -32 43 -37 57 -32 86 7 44 -13
134 -31 134 -9 0 -11 -7 -7 -21 5 -15 4 -19 -5 -14 -6 4 -10 16 -7 26 3 11 -1
26 -9 33 -19 20 -18 54 4 59 9 3 19 5 20 6 2 0 17 -6 32 -16z m-250 -58 c0 -7
-7 -16 -16 -19 -11 -4 -13 -10 -6 -23 5 -9 7 -34 5 -55 -3 -21 -1 -43 5 -50
11 -14 10 -93 -2 -120 -5 -10 -14 -14 -24 -11 -13 4 -12 2 3 -11 11 -10 14
-14 6 -10 -11 5 -13 3 -8 -9 4 -10 0 -20 -9 -25 -9 -5 -17 -13 -17 -18 -1 -5
-6 -8 -10 -6 -5 1 -6 -2 -2 -8 3 -5 -11 -28 -32 -51 -104 -111 -96 -104 -88
-78 4 13 11 26 14 29 4 3 6 12 6 20 -1 8 4 29 11 46 6 17 15 55 19 83 5 40 14
59 36 79 27 24 39 52 21 52 -4 0 -30 -24 -58 -52 -108 -113 -243 -238 -258
-238 -8 0 -18 5 -22 12 -5 7 -2 9 7 4 8 -4 4 0 -8 9 l-22 17 61 71 c33 40 71
89 84 110 13 20 29 37 34 37 6 0 10 6 10 13 0 16 145 169 182 192 16 10 37 14
50 11 13 -3 17 -3 10 0 -6 3 -10 10 -6 15 7 12 24 2 24 -16z m-172 -337 c-8
-38 -53 -175 -73 -220 -5 -13 -3 -18 9 -18 9 0 16 -4 16 -10 0 -9 -25 -121
-72 -325 -11 -49 -38 -130 -59 -180 -40 -94 -134 -353 -151 -419 -8 -27 -8
-40 0 -45 8 -5 5 -27 -9 -74 -17 -54 -25 -67 -42 -67 -34 0 -99 -45 -150 -104
-31 -36 -56 -56 -70 -56 -12 0 -37 -9 -55 -20 -41 -25 -42 -25 -42 4 0 13 9
30 20 37 31 21 110 305 110 395 0 51 -41 122 -167 290 -57 76 -73 127 -73 228
l0 50 28 -30 c61 -68 124 -83 196 -49 64 31 215 216 203 249 -6 14 18 40 66
69 15 10 27 23 27 30 0 7 16 28 35 47 18 18 33 36 32 39 -1 3 25 31 58 62 131
122 170 159 171 159 1 0 -2 -19 -8 -42z m-999 -47 c9 -6 10 -11 2 -15 -6 -4
-9 -12 -6 -17 4 -5 1 -9 -5 -9 -7 0 -9 -7 -6 -16 4 -11 2 -15 -8 -11 -10 4
-14 0 -11 -13 2 -13 -1 -17 -10 -14 -8 4 -20 -6 -29 -23 -13 -27 -13 -31 4
-43 21 -15 20 -53 -4 -98 -15 -29 -68 -62 -99 -62 -9 0 -19 -4 -22 -10 -3 -5
-12 -10 -18 -10 -7 0 -6 4 3 10 8 5 10 10 4 10 -6 0 2 38 20 94 17 52 34 92
39 89 5 -3 6 3 3 14 -8 24 46 110 76 123 30 11 50 12 67 1z m1134 -588 c-3
-43 -15 -112 -28 -153 -37 -124 -100 -433 -89 -437 7 -2 8 -20 3 -51 -4 -26
-8 -53 -8 -59 -1 -19 -55 -16 -82 5 -13 9 -41 26 -61 36 -28 14 -38 26 -38 43
0 19 5 23 31 23 27 0 33 6 55 55 20 43 214 599 214 612 0 2 2 3 3 3 2 0 2 -35
0 -77z m-2448 -24 c-3 -5 0 -7 7 -4 7 3 24 -4 38 -15 22 -17 23 -22 13 -39 -7
-12 -13 -28 -13 -36 0 -8 -8 -15 -17 -15 -15 0 -15 -2 -4 -9 12 -8 9 -15 -12
-41 -29 -34 -31 -43 -27 -105 2 -35 0 -38 -14 -26 -14 12 -16 12 -10 -2 3 -8
12 -18 20 -21 10 -4 14 -23 14 -68 0 -35 5 -101 10 -147 5 -47 9 -86 7 -87 -1
-1 -39 -5 -84 -9 l-83 -7 0 51 c0 45 3 52 28 65 15 8 38 27 52 42 l25 28 -33
-27 c-34 -27 -41 -29 -119 -32 -28 0 -54 -9 -75 -25 -28 -21 -42 -24 -97 -22
-36 1 -67 5 -70 7 -11 11 35 45 60 45 23 0 30 6 35 28 4 15 11 33 17 40 5 6 7
12 3 12 -11 0 31 74 56 97 12 11 39 25 59 31 l35 9 3 -38 c1 -22 -3 -39 -9
-39 -5 0 -10 -16 -10 -35 0 -25 -4 -35 -16 -35 -8 0 -13 4 -10 9 4 5 -3 7 -14
4 -11 -3 -28 1 -38 8 -15 13 -16 12 -3 -3 11 -15 11 -18 0 -19 -8 -1 -18 -1
-22 0 -5 1 -6 -3 -3 -8 3 -5 -6 -16 -20 -26 -14 -9 -23 -19 -20 -22 3 -3 20 7
38 22 29 25 38 27 88 22 30 -4 60 -3 65 1 6 4 11 27 13 52 3 44 27 85 43 74 5
-3 9 0 9 5 0 16 -11 14 -32 -6 -17 -15 -18 -14 -18 15 0 19 7 35 18 41 15 9
15 10 0 11 -20 0 -14 32 13 71 17 24 17 28 4 39 -21 18 -19 27 13 42 16 8 37
33 52 64 14 28 28 49 33 47 4 -2 5 -9 2 -14z m3485 -156 c0 -56 -30 -551 -36
-601 l-5 -43 -102 96 -101 96 -29 -33 c-16 -18 -59 -64 -95 -103 -37 -38 -116
-123 -176 -187 l-108 -118 -397 0 -397 0 -175 -186 c-96 -102 -216 -232 -267
-287 -137 -149 -115 -141 -381 -147 l-225 -5 -190 -246 c-105 -135 -205 -256
-222 -268 -17 -12 -46 -26 -65 -31 -22 -7 -206 -8 -506 -3 l-473 6 0 169 0
168 73 0 c39 0 67 4 61 8 -7 4 -9 21 -7 39 5 30 9 33 60 43 30 7 55 10 56 8
19 -36 29 -44 72 -52 33 -6 49 -14 52 -27 5 -17 16 -19 88 -19 l83 0 -9 37
c-4 21 -6 40 -3 42 6 6 97 41 99 38 0 -1 6 -14 12 -28 8 -19 24 -29 58 -39 26
-7 52 -21 58 -32 9 -14 24 -18 62 -17 l50 0 195 251 c107 139 208 261 223 272
26 20 45 21 263 24 l234 3 20 26 c10 14 79 88 152 166 73 78 186 198 251 267
65 69 133 133 150 142 29 15 73 17 412 18 l381 0 154 167 154 166 -88 84 c-49
46 -87 85 -85 87 5 4 607 84 642 85 25 1 27 -2 27 -36z m-3319 -121 c40 -45
90 -108 104 -132 41 -69 83 -120 98 -120 10 0 53 26 96 59 60 45 82 56 95 49
9 -5 14 -13 11 -19 -3 -5 0 -6 7 -4 8 3 24 -4 37 -16 l24 -22 -44 -39 c-82
-71 -207 -150 -247 -155 -50 -7 -95 16 -127 65 -13 20 -39 57 -58 82 -25 34
-32 51 -26 66 4 12 4 26 0 33 -15 23 -33 -45 -37 -139 -4 -101 -11 -150 -22
-150 -4 0 -16 23 -27 50 -22 54 -26 155 -10 254 5 31 3 69 -5 104 -14 64 -8
72 56 72 36 0 46 -5 75 -38z m1261 -97 l66 -81 -8 -70 c-12 -114 -13 -404 -1
-404 7 0 11 -33 11 -90 l0 -90 -97 -105 c-85 -91 -102 -105 -130 -105 -20 0
-37 7 -45 18 -7 11 -31 22 -53 26 -22 4 -43 13 -47 19 -16 25 -8 48 22 58 26
10 32 20 55 96 25 81 57 214 70 293 3 19 12 67 20 105 7 39 16 90 19 115 16
121 36 286 36 299 0 9 3 11 8 6 5 -6 38 -46 74 -90z m-1690 -216 c-25 -39 -15
-56 41 -69 28 -6 74 -14 101 -17 34 -4 45 -8 35 -14 -10 -7 -6 -8 11 -5 14 3
37 0 52 -7 l26 -12 -20 -44 -21 -43 -51 6 c-28 3 -64 8 -81 11 -16 3 -39 7
-50 8 -12 2 -25 6 -30 9 -6 3 -27 9 -48 12 -106 17 -127 48 -98 143 14 47 19
53 37 49 27 -7 84 12 85 27 0 7 5 2 12 -11 8 -18 8 -28 -1 -43z m373 -179 c33
0 105 -73 105 -105 l0 -28 66 6 c62 6 66 5 61 -13 -3 -11 -2 -18 2 -15 5 2 20
-35 34 -83 37 -123 39 -175 9 -191 -22 -12 -151 -29 -262 -35 -47 -2 -93 -8
-103 -11 -18 -7 -85 -1 -94 9 -3 3 0 73 8 156 7 84 16 145 21 138 4 -7 8 -9 8
-4 0 5 8 2 18 -5 16 -13 16 -13 0 7 -10 11 -18 24 -18 27 0 4 31 7 69 7 37 0
89 3 113 6 43 6 45 8 39 32 -10 36 -46 47 -65 20 -14 -19 -36 -18 -36 3 0 6 4
8 9 4 6 -3 15 3 20 14 16 30 12 40 -4 11 -9 -15 -14 -19 -15 -10 0 12 -2 13
-9 1 -7 -11 -11 -10 -20 7 -6 11 -24 23 -41 27 -29 6 -36 19 -24 48 5 13 11
13 47 -4 23 -10 51 -19 62 -19z m-77 -46 c14 8 30 -15 26 -37 -6 -43 -13 -49
-56 -46 -24 1 -54 -3 -67 -8 -21 -8 -24 -17 -27 -79 -2 -38 -10 -116 -19 -174
-8 -58 -14 -112 -12 -120 2 -15 -10 -235 -19 -360 -7 -99 -8 -100 -67 -101
-69 -1 -131 2 -136 7 -3 3 19 257 35 389 2 22 7 69 9 105 3 36 7 88 9 115 3
28 8 88 12 135 3 47 11 91 17 98 10 13 42 29 121 61 17 7 46 9 70 6 32 -5 45
-3 55 9 10 12 17 13 27 5 7 -6 17 -8 22 -5z m-104 -436 c13 -8 31 -103 66
-352 12 -87 25 -143 33 -150 8 -6 17 -35 20 -63 l6 -53 -65 0 c-47 0 -66 4
-70 15 -5 13 -36 26 -96 39 -19 4 -28 13 -28 26 0 15 7 20 28 20 15 0 32 4 38
8 11 7 43 369 46 517 1 39 3 54 5 35 3 -19 10 -38 17 -42z m212 -23 c1 -11 6
-38 11 -60 5 -22 8 -53 6 -68 -2 -16 1 -35 7 -42 6 -7 12 -41 13 -74 1 -34 4
-61 8 -61 4 0 7 -10 8 -22 0 -13 4 -46 7 -75 l6 -51 -77 -4 c-42 -2 -80 -1
-84 2 -8 6 -22 83 -51 284 -12 76 -23 142 -25 147 -11 17 7 35 37 37 18 2 33
4 35 5 1 2 24 3 50 2 41 0 48 -3 49 -20z"/>
</g>
</svg>
